# xmcd CD database file
#
# Track frame offsets:
#       150
#       15403
#       35515
#       52183
#       67334
#       87916
#       105041
#       121974
#       137728
#       157132
#       171714
#
# Disc length: 2527 seconds
#
# Revision: 0
# Processed by: cddbd v1.5.2PL0 Copyright (c) Steve Scherf et al.
# Submitted via: jack 3.1.1
#
DISCID=9909dd0b
DTITLE=Rachelle Plas - Profile
DYEAR=2012
DGENRE=Blues
TTITLE0=Profile
TTITLE1=Fire look
TTITLE2=Advices
TTITLE3=Killer
TTITLE4=Fizzy
TTITLE5=Shake
TTITLE6=Back in the 70's
TTITLE7=Crossover
TTITLE8=Dynamite breeze
TTITLE9=How dare you!
TTITLE10=Let the future be right
EXTD=
EXTT0=
EXTT1=
EXTT2=
EXTT3=
EXTT4=
EXTT5=
EXTT6=
EXTT7=
EXTT8=
EXTT9=
EXTT10=
PLAYORDER=
